<svg xmlns="http://www.w3.org/2000/svg" viewBox="0 0 64 64" width="64" height="64">
  <!-- Pink flower favicon -->
  <circle cx="32" cy="32" r="30" fill="#fdf6f0"/>
  <!-- Petals -->
  <ellipse cx="32" cy="16" rx="8" ry="12" fill="#e8a0bf" transform="rotate(0 32 32)"/>
  <ellipse cx="32" cy="16" rx="8" ry="12" fill="#e8a0bf" transform="rotate(72 32 32)"/>
  <ellipse cx="32" cy="16" rx="8" ry="12" fill="#e8a0bf" transform="rotate(144 32 32)"/>
  <ellipse cx="32" cy="16" rx="8" ry="12" fill="#e8a0bf" transform="rotate(216 32 32)"/>
  <ellipse cx="32" cy="16" rx="8" ry="12" fill="#e8a0bf" transform="rotate(288 32 32)"/>
  <!-- Inner petals -->
  <ellipse cx="32" cy="20" rx="5" ry="8" fill="#f5d5e0" transform="rotate(36 32 32)"/>
  <ellipse cx="32" cy="20" rx="5" ry="8" fill="#f5d5e0" transform="rotate(108 32 32)"/>
  <ellipse cx="32" cy="20" rx="5" ry="8" fill="#f5d5e0" transform="rotate(180 32 32)"/>
  <ellipse cx="32" cy="20" rx="5" ry="8" fill="#f5d5e0" transform="rotate(252 32 32)"/>
  <ellipse cx="32" cy="20" rx="5" ry="8" fill="#f5d5e0" transform="rotate(324 32 32)"/>
  <!-- Center -->
  <circle cx="32" cy="32" r="6" fill="#c2789e"/>
  <circle cx="32" cy="32" r="3" fill="#e8a0bf"/>
</svg>
